:SAMPLES-PER-SECOND 30
:FRAME-RANGE 1-2045
:FULLY-SPECIFIED
:DEGREES
1151
root  -11.742 33.9731 -0.483388 1.07309 53.8869 4.01675
RightUpLeg  -19.8069 -5.37647 -23.6811
RightLeg  51.8038 0.115605 -0.218068
RightFoot  -24.7384 2.83765 25.2243
RightToes  5.82063e-011 0 -3.6325e-017
Spine  25.3997 -0.717881 1.74078
Spine1  0.97017 -1.1444 1.49404
HEad  -8.83711 -1.43247 -7.64078
LeftShoulder1  2.23157 -4.02148 -23.4028
LeftArm  -14.1312 -32.1789 -20.2321
LeftForeArm  15.5181 -3.77615 -15.6816
LeftHand  0.254926 -2.35369 -3.64036
RightShoulder  11.9146 27.7674 31.8394
RightArm  -6.8047 24.3682 8.84956
RightForeArm  -8.75555 17.8117 8.51071
RightHand  0.602569 5.85524 5.87462
LeftUpLeg  -49.2013 25.544 -5.70484
LeftLeg  48.307 0.048939 0.496939
LeftFoot  -6.37007 0.360724 -7.4243
LeftToes  -3.90176e-010 -2.48536e-010 1.05482e-011
1152
root  -10.0008 34.4106 0.477265 -1.48633 53.9321 0.705475
RightUpLeg  -14.6706 -5.14964 -22.2935
RightLeg  48.3728 0.710933 0.519011
RightFoot  -24.3351 3.01703 27.4636
RightToes  5.82063e-011 0 -3.6325e-017
Spine  24.789 0.0572947 1.86312
Spine1  -0.182811 -0.522088 2.59909
HEad  -5.92831 -2.56236 -7.44119
LeftShoulder1  2.09129 -3.65366 -22.9404
LeftArm  -8.34868 -30.4797 -19.9094
LeftForeArm  11.3128 -7.62894 -14.9348
LeftHand  0.274636 -2.72863 -3.72345
RightShoulder  12.5408 26.9452 34.9348
RightArm  2.75872 23.0731 10.8225
RightForeArm  -12.7428 23.0469 5.7287
RightHand  0.597703 5.95498 5.76764
LeftUpLeg  -47.5672 26.9439 -5.99121
LeftLeg  37.0287 -2.2893 -1.48172
LeftFoot  -3.51649 0.584174 -8.22461
LeftToes  -3.90176e-010 -2.48536e-010 1.05482e-011
1153
root  -8.16422 34.5865 1.29503 -4.64795 53.69 -2.54785
RightUpLeg  -11.4112 -3.85247 -21.7279
RightLeg  48.8905 2.08841 2.22501
RightFoot  -21.135 2.64008 31.7304
RightToes  5.82063e-011 0 -3.6325e-017
Spine  24.1957 0.672474 2.78626
Spine1  -0.552982 0.312814 2.55475
HEad  -3.46868 -3.98309 -6.31569
LeftShoulder1  2.0007 -3.4633 -22.408
LeftArm  -2.71194 -30.4946 -20.338
LeftForeArm  7.91175 -11.407 -13.4243
LeftHand  0.281709 -3.06622 -3.64523
RightShoulder  13.0432 25.7514 38.2809
RightArm  3.05788 20.6232 10.8638
RightForeArm  -9.56266 28.6122 6.69239
RightHand  0.595001 5.77384 5.84393
LeftUpLeg  -44.6012 25.7389 -4.52217
LeftLeg  31.0574 -2.77178 -1.44821
LeftFoot  6.9236 0.328106 -2.30352
LeftToes  -3.90176e-010 -2.48536e-010 1.05482e-011
1154
root  -6.18897 34.4717 1.98028 -7.4368 52.5189 -4.29773
RightUpLeg  -10.4056 -1.66003 -22.5646
RightLeg  53.396 3.14684 4.16203
RightFoot  -15.1731 1.12634 35.6688
RightToes  5.82063e-011 0 -3.6325e-017
Spine  24.5237 1.09234 3.47648
Spine1  -0.928321 0.910831 2.05648
HEad  -1.13137 -4.54431 -5.40747
LeftShoulder1  1.92719 -3.28088 -22.0767
LeftArm  3.40797 -31.252 -20.4309
LeftForeArm  3.24486 -15.3111 -11.1212
LeftHand  0.234663 -3.08301 -2.99139
RightShoulder  13.582 24.9795 41.2552
RightArm  3.37653 19.0711 10.9944
RightForeArm  -6.37662 32.2658 7.4687
RightHand  0.567257 5.61947 5.64392
LeftUpLeg  -42.5467 22.0953 -0.627807
LeftLeg  37.9858 -0.326587 0.107543
LeftFoot  7.07461 -0.88673 5.20021
LeftToes  -3.90176e-010 -2.48536e-010 1.05482e-011
1155
root  -4.11161 34.5033 2.48999 -8.59988 51.3172 -3.62256
RightUpLeg  -12.6506 -1.10783 -24.3868
RightLeg  60.7715 1.26326 1.93842
RightFoot  -2.60645 -1.88999 24.1722
RightToes  5.82063e-011 0 -3.6325e-017
Spine  24.5722 1.30647 4.10059
Spine1  -0.715449 1.16397 2.9891
HEad  0.0302125 -4.99631 -4.69658
LeftShoulder1  1.87982 -3.21431 -21.6262
LeftArm  6.25301 -33.4982 -20.7096
LeftForeArm  0.951894 -17.6608 -9.27311
LeftHand  0.189928 -3.08977 -2.37517
RightShoulder  13.8508 24.7468 42.5217
RightArm  3.71159 18.3865 11.7736
RightForeArm  -4.19427 33.7918 7.76701
RightHand  0.515911 5.47797 5.17986
LeftUpLeg  -39.7065 20.5498 0.763383
LeftLeg  44.506 1.39575 1.88034
LeftFoot  1.49769 -0.498674 4.34955
LeftToes  -3.90176e-010 -2.48536e-010 1.05482e-011
1156
root  -2.36892 34.6585 2.84799 -6.80881 49.58 -1.3089
RightUpLeg  -17.6686 -2.7357 -25.1922
RightLeg  64.8261 -2.55785 -6.55194
RightFoot  2.45548 -1.36178 11.3607
RightToes  5.82063e-011 0 -3.6325e-017
Spine  24.4618 1.21141 4.46683
Spine1  -0.219007 1.66821 0.744046
HEad  1.09328 -3.84488 -6.32688
LeftShoulder1  1.86996 -3.27248 -21.216
LeftArm  7.34394 -34.8242 -21.5282
LeftForeArm  -0.863906 -19.7494 -7.41298
LeftHand  0.171917 -3.07279 -2.13378
RightShoulder  14.1437 25.1922 42.7509
RightArm  4.40317 18.3524 12.7295
RightForeArm  -3.80225 33.7209 7.72576
RightHand  0.469711 5.43845 4.70775
LeftUpLeg  -37.922 21.399 -0.73711
LeftLeg  47.585 2.37122 3.21611
LeftFoot  -2.41909 -0.396766 5.26918
LeftToes  -3.90176e-010 -2.48536e-010 1.05482e-011
1157
root  -0.688136 34.8723 2.94879 -5.8851 47.6974 -0.983856
RightUpLeg  -23.175 -5.95306 -23.504
RightLeg  64.0715 -3.97834 -9.45384
RightFoot  -1.35266 -0.940955 10.6326
RightToes  5.82063e-011 0 -3.6325e-017
Spine  25.468 0.494776 6.49932
Spine1  -1.66555 1.59922 0.753638
HEad  1.17906 -0.894827 -9.32511
LeftShoulder1  1.84957 -3.1338 -21.5019
LeftArm  7.18368 -34.2661 -22.4543
LeftForeArm  -2.53276 -22.0993 -5.61923
LeftHand  0.170002 -3.11288 -2.09446
RightShoulder  14.3792 26.3827 41.6168
RightArm  5.93028 19.1287 13.9629
RightForeArm  -3.36207 32.7868 7.44632
RightHand  0.431427 5.51946 4.26193
LeftUpLeg  -37.2331 22.6382 -1.72261
LeftLeg  50.2067 3.03412 4.35825
LeftFoot  -5.31866 -0.22899 4.95978
LeftToes  -3.90176e-010 -2.48536e-010 1.05482e-011
1158
root  0.79726 35.0904 2.96389 -4.07309 45.9746 -0.0137024
RightUpLeg  -29.1844 -9.5563 -20.2138
RightLeg  59.0374 -5.2609 -9.86289
RightFoot  -3.52757 -0.967025 13.7446
RightToes  5.82063e-011 0 -3.6325e-017
Spine  27.0444 0.0402309 7.94819
Spine1  -2.92769 1.48601 1.76944
HEad  -0.185327 1.96275 -12.5581
LeftShoulder1  1.84109 -3.1232 -21.4131
LeftArm  4.40184 -33.8914 -23.757
LeftForeArm  -1.48354 -24.0489 -5.21535
LeftHand  0.199302 -3.15527 -2.47948
RightShoulder  14.149 27.4936 39.2441
RightArm  9.02222 21.0215 15.3861
RightForeArm  -3.96736 32.1483 7.30821
RightHand  0.19176 4.84839 1.87282
LeftUpLeg  -39.0296 24.7466 -3.66589
LeftLeg  54.3149 3.06082 5.07293
LeftFoot  -3.66997 -0.13863 2.39789
LeftToes  -3.90176e-010 -2.48536e-010 1.05482e-011
1159
root  2.1781 35.101 2.93966 -1.83789 44.1787 1.35446
RightUpLeg  -35.2997 -12.3949 -15.7229
RightLeg  51.0147 -5.32371 -7.38133
RightFoot  -2.84048 -1.32271 17.4103
RightToes  5.82063e-011 0 -3.6325e-017
Spine  27.985 -0.41379 10.0147
Spine1  -3.05403 1.44852 1.82398
HEad  -1.64035 4.36903 -15.3398
LeftShoulder1  1.8743 -3.3489 -20.9559
LeftArm  2.55568 -34.3413 -24.7363
LeftForeArm  -1.24157 -25.1772 -5.45562
LeftHand  0.228284 -3.22125 -2.84664
RightShoulder  13.9145 29.1923 36.2013
RightArm  14.0583 23.0078 17.179
RightForeArm  -4.67425 31.3053 7.12422
RightHand  -0.130973 4.13968 -1.86904
LeftUpLeg  -43.4548 27.985 -6.1357
LeftLeg  60.477 2.5793 5.51489
LeftFoot  2.34977 0.318698 -2.77374
LeftToes  -3.90176e-010 -2.48536e-010 1.05482e-011
1160
root  3.53393 34.7924 3.09283 0.928406 42.9027 4.1384
RightUpLeg  -39.1055 -14.1006 -12.2618
RightLeg  41.4994 -1.17514 -1.40799
RightFoot  -2.3116 -1.97832 24.4988
RightToes  5.82063e-011 0 -3.6325e-017
Spine  28.0809 -0.974555 10.9281
Spine1  -2.65192 1.17528 0.779791
HEad  -1.96423 6.2165 -17.0368
LeftShoulder1  1.93379 -3.53911 -21.0701
LeftArm  3.18276 -35.2513 -25.0251
LeftForeArm  -1.69786 -25.4006 -5.52957
LeftHand  0.253059 -3.31911 -3.1378
RightShoulder  14.3098 31.5357 34.4256
RightArm  18.9686 24.3497 18.806
RightForeArm  -3.90556 29.0859 6.52064
RightHand  -0.200264 5.03476 -2.53206
LeftUpLeg  -47.6878 30.8213 -8.13324
LeftLeg  67.3338 0.238432 1.39272
LeftFoot  10.6602 1.46796 -7.87917
LeftToes  -3.90176e-010 -2.48536e-010 1.05482e-011
1161
root  5.02764 34.2254 3.24491 0.449127 42.0248 4.88629
RightUpLeg  -41.7088 -10.2587 -11.6723
RightLeg  42.5468 1.65985 1.31527
RightFoot  3.30781 -0.84187 6.71797
RightToes  5.82063e-011 0 -3.6325e-017
Spine  28.1544 -1.31531 13.9383
Spine1  -1.96364 0.685822 1.72502
HEad  -1.0757 7.22229 -17.7183
LeftShoulder1  2.05717 -3.8423 -21.6537
LeftArm  5.93248 -37.2882 -25.497
LeftForeArm  -2.65461 -24.5931 -5.39569
LeftHand  0.233096 -3.26848 -2.89211
RightShoulder  14.9894 32.6934 34.9403
RightArm  23.5713 25.6105 19.5975
RightForeArm  -4.55436 26.444 5.91962
RightHand  0.0595125 5.85712 0.284825
LeftUpLeg  -47.8954 31.1666 -4.70242
LeftLeg  74.5339 -2.61747 -9.71706
LeftFoot  14.3369 3.33117 -14.9355
LeftToes  -3.90176e-010 -2.48536e-010 1.05482e-011
1162
root  6.49734 32.9973 3.70361 -0.889465 43.8133 7.83389
RightUpLeg  -40.6858 -4.08068 -19.3071
RightLeg  53.1082 -0.646232 -1.33914
RightFoot  -3.92284 -0.951527 14.1954
RightToes  5.82063e-011 0 -3.6325e-017
Spine  29.6763 -2.38429 13.0931
Spine1  -1.87605 0.0402502 1.86333
HEad  0.161201 7.77696 -18.0061
LeftShoulder1  2.21657 -4.34622 -21.9039
LeftArm  8.86877 -40.2465 -27.0345
LeftForeArm  -3.54052 -22.4248 -5.51838
LeftHand  0.189355 -3.15359 -2.34475
RightShoulder  15.3701 32.7334 35.9232
RightArm  28.1686 26.231 21.073
RightForeArm  -10.6367 24.0444 5.66717
RightHand  0.227703 5.48935 2.10736
LeftUpLeg  -44.0974 27.6801 1.31477
LeftLeg  80.5343 -2.52262 -16.7508
LeftFoot  8.20724 3.77645 -21.9763
LeftToes  -3.90176e-010 -2.48536e-010 1.05482e-011
1163
root  8.00237 32.3469 3.89717 -2.40411 46.3633 8.45978
RightUpLeg  -38.0683 -5.80282 -22.7388
RightLeg  58.0445 0.226092 -0.0929342
RightFoot  -7.73942 -0.540526 15.4203
RightToes  5.82063e-011 0 -3.6325e-017
Spine  29.417 -3.74943 14.0697
Spine1  -1.31197 -0.881314 2.20154
HEad  1.03383 8.49143 -18.5006
LeftShoulder1  2.42219 -4.79213 -22.9243
LeftArm  5.38414 -43.2704 -28.5857
LeftForeArm  -0.130648 -19.2801 -7.765
LeftHand  0.145058 -2.67509 -1.88387
RightShoulder  15.794 32.5181 37.3228
RightArm  26.2079 26.3005 21.8026
RightForeArm  -16.947 21.8966 6.58695
RightHand  0.378299 5.0125 3.91047
LeftUpLeg  -41.5581 23.0334 7.5047
LeftLeg  80.2628 -2.04864 -12.9147
LeftFoot  5.24449 2.46356 -17.0152
LeftToes  -3.90176e-010 -2.48536e-010 1.05482e-011
1164
root  9.32457 32.0242 3.99155 -1.45865 46.0571 9.27701
RightUpLeg  -37.8691 -7.55722 -25.3238
RightLeg  60.0507 1.5098 2.32587
RightFoot  -9.80092 -0.293291 16.7201
RightToes  5.82063e-011 0 -3.6325e-017
Spine  28.7158 -3.14989 13.2023
Spine1  -1.32374 -0.580007 2.9166
HEad  1.4313 9.82335 -18.662
LeftShoulder1  2.70472 -5.4516 -23.9863
LeftArm  -2.69002 -45.0439 -29.5862
LeftForeArm  4.51575 -15.6398 -10.497
LeftHand  0.114058 -2.31329 -1.53457
RightShoulder  16.6907 32.1268 40.2123
RightArm  17.2817 27.6383 21.0134
RightForeArm  -17.227 17.6725 10.1507
RightHand  0.64317 4.32846 7.3839
LeftUpLeg  -39.788 21.4826 12.6479
LeftLeg  73.5662 -1.27995 -3.91523
LeftFoot  3.73637 1.63756 -12.5066
LeftToes  -3.90176e-010 -2.48536e-010 1.05482e-011
1165
root  10.4451 31.9312 3.84902 -1.20654 43.9171 9.09036
RightUpLeg  -38.1157 -7.11129 -26.6972
RightLeg  59.7954 2.21282 3.61569
RightFoot  -9.90492 -0.291971 17.7518
RightToes  5.82063e-011 0 -3.6325e-017
Spine  30.2352 -2.54938 11.7755
Spine1  -2.54109 -0.0212505 2.85821
HEad  0.731248 11.4325 -18.1931
LeftShoulder1  2.82627 -5.91904 -23.7688
LeftArm  -14.3348 -46.1806 -29.2533
LeftForeArm  12.5484 -9.33313 -13.5781
LeftHand  0.125669 -1.96344 -1.82262
RightShoulder  17.7383 33.2251 41.5364
RightArm  2.97801 28.9843 21.6421
RightForeArm  -8.81693 10.5912 14.1908
RightHand  0.853152 4.79257 9.39452
LeftUpLeg  -36.082 19.4582 18.2493
LeftLeg  62.6485 0.536204 1.75062
LeftFoot  1.50666 0.987024 -8.8362
LeftToes  -3.90176e-010 -2.48536e-010 1.05482e-011
